<svg xmlns="http://www.w3.org/2000/svg" viewBox="0 0 32 32">
  <defs>
    <linearGradient id="g" x1="0%" y1="0%" x2="100%" y2="100%">
      <stop offset="0%" stop-color="#8b5cf6"/>
      <stop offset="100%" stop-color="#10b981"/>
    </linearGradient>
  </defs>

  <!-- Premium rounded tile -->
  <rect width="32" height="32" rx="9" fill="url(#g)"/>

  <!-- Heart + cross health symbol -->
  <g fill="#ffffff" transform="translate(0,0)">
    <!-- Heart core -->
    <path d="M16 9.5c-1.7-2.1-4.8-2.1-6.5 0-1.4 1.8-1.1 4.5 0.5 6l6 6.1 6-6.1c1.6-1.5 1.9-4.2 0.5-6-1.7-2.1-4.8-2.1-6.5 0z"/>
    <!-- Subtle medical cross inside the heart -->
    <path d="M17.1 12.4h-1.1v-1.1c0-.55-.45-1-1-1s-1 .45-1 1v1.1h-1.1c-.55 0-1 .45-1 1s.45 1 1 1h1.1v1.1c0 .55.45 1 1 1s1-.45 1-1v-1.1h1.1c.55 0 1-.45 1-1s-.45-1-1-1z"/>
  </g>
</svg>
